Coordinates
version=1
nRows=17
nColumns=36
inDegrees=yes

Units are S.I. units (second, meters, Newtons, ...)
If the header above contains a line with 'inDegrees', this indicates whether rotational values are in degrees (yes) or radians (no).

endheader
time	pelvis_tilt	pelvis_list	pelvis_rotation	pelvis_tx	pelvis_ty	pelvis_tz	hip_flexion_r	hip_adduction_r	hip_rotation_r	knee_angle_r	knee_angle_r_beta	ankle_angle_r	subtalar_angle_r	mtp_angle_r	hip_flexion_l	hip_adduction_l	hip_rotation_l	knee_angle_l	knee_angle_l_beta	ankle_angle_l	subtalar_angle_l	mtp_angle_l	lumbar_extension	lumbar_bending	lumbar_rotation	arm_flex_r	arm_add_r	arm_rot_r	elbow_flex_r	pro_sup_r	arm_flex_l	arm_add_l	arm_rot_l	elbow_flex_l	pro_sup_l
      3.66666670	     -1.52085497	      1.23944215	      3.68271700	      0.27940096	      0.92529486	     -0.09374544	      1.63725369	     -5.89811815	     -0.57625629	      7.48636484	      0.13066172	      7.71166158	    -24.68569991	     -7.49999987	      5.21193763	     -4.17095076	     10.84640075	      9.97166947	      0.17403846	     10.24019453	     -8.56996310	     -7.49999987	     -9.30087942	      2.58581688	      6.80445326	      7.86838083	     -8.68754443	     -4.73236027	     29.54423764	     78.96345776	      2.94473065	     -4.88501695	     10.42002653	     74.63330981	     83.02476197
      3.67083330	     -1.43076725	      1.31924871	      3.83123317	      0.27923970	      0.92578669	     -0.09354235	      1.30089352	     -6.06387502	     -0.69722958	      7.29594593	      0.12733828	      7.81949631	    -24.75547138	     -7.49999987	      5.06972017	     -3.99828325	     11.03599369	      9.97166512	      0.17403839	     10.22031127	     -8.78592987	     -7.49999987	     -9.09165223	      2.62289686	      6.55357340	      7.39646534	     -8.59505253	     -5.25061888	     29.69068326	     78.64117048	      2.72069091	     -4.80568585	     10.81241832	     74.15756673	     82.92371202
      3.67500000	     -1.35806634	      1.39674664	      3.90942974	      0.28320309	      0.92665231	     -0.09851494	      1.07483372	     -6.29704881	     -0.74739980	      7.40526049	      0.12924618	      7.72709762	    -24.77020127	     -7.49999987	      4.88457478	     -3.80083398	     11.00298142	      9.93780060	      0.17344734	     10.26676325	     -8.81624126	     -7.49999987	     -8.96956516	      2.75323287	      6.35996807	      7.01345887	     -8.65326043	     -5.29554275	     29.58696685	     78.63564072	      2.28643752	     -4.60307876	     10.97282491	     74.02333853	     82.94486754
      3.67916670	     -1.28673651	      1.53850527	      4.08987805	      0.28331576	      0.92999125	     -0.09824504	      0.62186934	     -6.57840103	     -1.22775729	      7.08075667	      0.12358252	      7.46165778	    -24.81725451	     -7.49999987	      4.50163521	     -3.52277288	     11.44891297	      9.54610093	      0.16661089	     10.14144859	     -9.07878658	     -7.49999987	     -8.51026621	      2.85021195	      6.10588116	      6.61594636	     -8.52897545	     -5.90926882	     29.47907022	     78.56069730	      2.12651924	     -4.24967139	     10.89269875	     72.10724789	     83.13900166
      3.68333330	     -1.21395918	      1.57855579	      4.08108523	      0.27935633	      0.92718330	     -0.09347530	      0.58790579	     -6.62873674	     -1.28592723	      7.12205668	      0.12430334	      7.49518895	    -24.97325168	     -7.49999987	      4.41725622	     -3.45957198	     11.48013379	      9.53692201	      0.16645069	     10.23060879	     -9.20551713	     -7.49999987	     -8.51804149	      2.83354450	      5.96829933	      6.54198573	     -8.40132869	     -6.06732801	     29.48042642	     78.53977552	      2.00788942	     -4.20267596	     10.99376380	     71.48873024	     83.21455785
      3.68750000	     -1.47806231	      1.55727378	      4.13811669	      0.27926700	      0.92703136	     -0.09333054	      0.85406991	     -6.61455980	     -1.49475070	      7.05387147	      0.12311328	      7.97621096	    -24.61025455	     -7.49999987	      4.78744033	     -3.45440221	     11.57542448	      9.62494024	      0.16798690	     10.33611818	     -8.96311398	     -7.49999987	     -8.22029286	      2.81827173	      5.90595201	      6.17977966	     -8.26399554	     -6.10313945	     29.85789524	     78.08674052	      1.76386672	     -4.19497828	     10.98941541	     71.12492800	     82.74786508
      3.69166670	     -1.25120312	      1.55216069	      4.27265095	      0.28364091	      0.92771812	     -0.09860223	      0.36813683	     -6.64148886	     -1.51365729	      6.71588704	      0.11721434	      7.28811615	    -25.25031183	     -7.49999987	      4.48222588	     -3.42009552	     11.86475914	      9.53846151	      0.16647756	     10.10521105	     -9.32748086	     -7.49999987	     -8.27172477	      2.99307046	      5.66751809	      6.15414048	     -8.13923682	     -6.42660638	     29.50290952	     78.06620027	      2.23707593	     -4.05371585	     11.19610130	     69.13025031	     83.01616590
      3.69583330	     -1.19641607	      1.54493368	      4.31610310	      0.28767078	      0.92787867	     -0.09395994	      0.10815121	     -6.56387830	     -1.54651340	      6.58721146	      0.11496853	      7.32895977	    -25.34318177	     -7.49999987	      4.30253317	     -3.49430332	     11.93547132	      9.47691271	      0.16540333	     10.13052336	     -9.32136991	     -7.49999987	     -8.14309597	      2.86479447	      5.58783887	      5.70514102	     -7.75314606	     -6.43141020	     29.45196235	     78.07467254	      2.05428491	     -4.31398824	     11.18472439	     68.70965103	     83.08425769
      3.70000000	     -1.06909615	      1.46568291	      4.42356215	      0.28778009	      0.92833992	     -0.09428665	     -0.33136274	     -6.41220364	     -1.76416079	      6.30078158	      0.10996938	      7.33445230	    -25.21919229	     -7.49999987	      4.02293970	     -3.63672069	     12.03150914	      9.37217303	      0.16357528	     10.18240429	     -9.17239317	     -7.49999987	     -7.95118128	      2.94365815	      5.68552076	      5.20046948	     -7.50764744	     -6.60198369	     29.46839603	     75.87263433	      2.27282594	     -4.46411666	     11.93858098	     67.27138665	     80.94101667
      3.70416670	     -0.96621439	      1.41062903	      4.59157781	      0.28759304	      0.92833927	     -0.09433142	     -0.71365871	     -6.26657307	     -2.12966981	      6.00187990	      0.10475257	      7.04066577	    -25.61231832	     -7.49999987	      3.78899407	     -3.73048619	     12.14686384	      9.27251875	      0.16183598	     10.22430132	     -9.13894125	     -7.49999987	     -7.85752839	      2.95505792	      5.45419942	      4.80346571	     -7.26322694	     -7.04364172	     29.56605785	     78.30896107	      2.08759333	     -4.57901561	     11.59368665	     66.84754908	     85.96896743
      3.70833330	     -0.96288408	      1.37704865	      4.57773261	      0.28340962	      0.92871299	     -0.09890221	     -0.67881800	     -6.27226570	     -2.13394058	      5.98931222	      0.10453322	      7.04330050	    -25.61541383	     -7.49999987	      3.77709467	     -3.69290279	     12.13753934	      9.26957032	      0.16178452	     10.22606257	     -9.14104149	     -7.49999987	     -7.86120395	      2.95146421	      5.44923856	      4.79533752	     -7.25221651	     -7.04193422	     29.56515525	     78.30906019	      2.08837638	     -4.58544965	     11.59310472	     66.84239543	     85.96891363
      3.71250000	     -0.89949136	      1.34130317	      4.77467041	      0.28350509	      0.92862970	     -0.09933081	     -0.85909614	     -6.28200557	     -2.53321871	      5.73976557	      0.10017781	      7.00912004	    -25.40099764	     -7.49999987	      3.78667295	     -3.67468181	     12.36855805	      9.21486057	      0.16082966	     10.22778831	     -9.28502941	     -7.49999987	     -7.89629965	      3.11778870	      5.04926849	      4.70026804	     -7.20929381	     -6.65843539	     29.50687765	     76.34563527	      3.00447894	     -4.98645789	     12.88344634	     65.29356055	     83.51838213
      3.71666670	     -0.91820933	      1.34756068	      4.77029832	      0.28769872	      0.92910385	     -0.10415304	     -0.85466863	     -6.41810771	     -2.50903256	      5.74947921	      0.10034734	      6.95411871	    -25.36603565	     -7.49999987	      3.79369215	     -3.56944975	     12.37165450	      9.17194809	      0.16008069	     10.26033764	     -9.29351158	     -7.49999987	     -7.95964674	      3.20625652	      4.87104435	      4.55090369	     -7.23978319	     -6.65950163	     29.45254999	     76.35031493	      3.09248931	     -5.00872906	     12.88614154	     65.23893231	     83.52980030
      3.72083330	     -0.84484487	      1.38406534	      4.98463489	      0.28774191	      0.92919429	     -0.10410885	     -1.12686111	     -6.54198200	     -2.91376307	      5.49491074	      0.09590428	      6.51599676	    -25.48155101	     -7.49999987	      3.61801066	     -3.43022983	     12.75473582	      8.94197058	      0.15606683	     10.24938098	     -9.37542980	     -7.49999987	     -7.82098654	      3.36747949	      4.21390795	      4.52855018	     -7.28560142	     -6.42073162	     29.42865536	     75.87971484	      3.51159419	     -5.13520575	     13.25000961	     63.84895195	     83.05945029
      3.72500000	     -0.70641204	      1.40423019	      5.02462226	      0.28755707	      0.93288463	     -0.10416094	     -1.34498353	     -6.62466057	     -3.19865939	      5.31985993	      0.09284907	      6.58760029	    -25.06550237	     -7.49999987	      3.34091817	     -3.31971655	     13.01543275	      8.74650327	      0.15265528	     10.08985998	     -9.70423678	     -7.49999987	     -7.86793801	      3.49405633	      4.20016052	      4.49463890	     -7.48678998	     -5.87702776	     29.03088679	     75.35621176	      4.01921971	     -5.07776870	     13.86917668	     62.47879790	     82.61676104
      3.72916670	     -0.66042022	      1.42109118	      5.19020830	      0.29162287	      0.93241766	     -0.09965923	     -1.60012685	     -6.55443669	     -3.28857841	      5.08478338	      0.08874621	      6.61826314	    -25.03465088	     -7.49999987	      3.16276220	     -3.35083929	     13.22871092	      8.62816222	      0.15058984	     10.11256732	     -9.65021297	     -7.49999987	     -7.71666622	      3.43617968	      3.92829337	      4.17675431	     -7.25015699	     -5.73103110	     29.00084597	     75.44099895	      3.88316559	     -5.28411084	     14.02192936	     62.10856613	     82.74183402
      3.73333330	     -0.41909463	      1.42346864	      5.32148424	      0.29149532	      0.93271846	     -0.09994270	     -2.14804550	     -6.44902952	     -3.66084127	      4.67268153	      0.08155368	      6.46647411	    -24.86453699	     -7.49999987	      2.84886072	     -3.42770220	     13.37063048	      8.58496869	      0.14983597	      9.95914327	     -9.59320468	     -7.49999987	     -7.82031404	      3.43477440	      3.74799870	      4.09187408	     -7.17207600	     -5.24416154	     28.74254056	     75.50306892	      4.11778878	     -5.40159896	     14.55142383	     60.97517141	     82.86796250
